<svg width="361" height="362" viewBox="0 0 361 362" fill="none" xmlns="http://www.w3.org/2000/svg">
<g filter="url(#filter0_d_2162_1151)">
<path d="M100.103 238.655C130.968 281.696 191.068 291.433 234.339 260.403C277.611 229.373 287.668 169.326 256.803 126.285C225.938 83.2432 165.838 73.5062 122.566 104.536C79.2948 135.567 69.2375 195.614 100.103 238.655Z" stroke="#1C1C1E" stroke-width="22"/>
</g>
<g filter="url(#filter1_d_2162_1151)">
<path d="M100.103 238.655C130.968 281.696 191.068 291.433 234.339 260.403C277.611 229.373 287.668 169.326 256.803 126.285C225.938 83.2432 165.838 73.5062 122.566 104.536C79.2948 135.567 69.2375 195.614 100.103 238.655Z" stroke="#1C1C1E" stroke-width="22"/>
</g>
<path d="M101.102 238.659C131.967 281.701 192.067 291.438 235.338 260.407C278.61 229.377 288.667 169.33 257.802 126.289C226.937 83.2475 166.837 73.5105 123.566 104.541C80.294 135.571 70.2366 195.618 101.102 238.659Z" stroke="#1C1C1E" stroke-width="22"/>
<path d="M264.359 118.346L266.749 121.68L255.914 129.45C255.472 129.767 254.922 129.896 254.385 129.807C253.848 129.719 253.368 129.421 253.051 128.979C252.734 128.536 252.606 127.986 252.694 127.45C252.783 126.913 253.081 126.433 253.523 126.116L264.359 118.346Z" fill="#FF0000"/>
<path d="M284.578 169.899L285.012 174.288L271.845 175.589C271.263 175.647 270.682 175.471 270.229 175.1C269.777 174.729 269.491 174.194 269.433 173.612C269.376 173.03 269.552 172.449 269.923 171.997C270.293 171.544 270.829 171.258 271.411 171.2L284.578 169.899Z" fill="#3BD0B4"/>
<path d="M276.516 224.685L274.697 228.703L262.644 223.247C262.111 223.005 261.696 222.562 261.489 222.015C261.283 221.468 261.303 220.861 261.544 220.328C261.785 219.795 262.228 219.38 262.776 219.174C263.323 218.968 263.93 218.987 264.462 219.229L276.516 224.685Z" fill="#3BD0B4"/>
<path d="M241.865 268.263L238.531 270.654L230.76 259.818C230.443 259.376 230.315 258.826 230.403 258.289C230.492 257.752 230.79 257.272 231.232 256.955C231.674 256.638 232.224 256.51 232.761 256.598C233.298 256.687 233.777 256.985 234.094 257.427L241.865 268.263Z" fill="#3BD0B4"/>
<path d="M190.664 288.512L186.275 288.946L184.973 275.779C184.916 275.197 185.092 274.616 185.463 274.164C185.834 273.711 186.369 273.425 186.951 273.368C187.533 273.31 188.114 273.486 188.566 273.857C189.018 274.228 189.305 274.763 189.362 275.345L190.664 288.512Z" fill="#3BD0B4"/>
<path d="M135.878 280.45L131.86 278.632L137.316 266.578C137.557 266.045 138 265.63 138.548 265.424C139.095 265.218 139.702 265.237 140.235 265.478C140.767 265.72 141.183 266.163 141.389 266.71C141.595 267.257 141.575 267.864 141.334 268.397L135.878 280.45Z" fill="#3BD0B4"/>
<path d="M91.9478 245.769L89.5569 242.435L100.393 234.665C100.835 234.347 101.385 234.219 101.921 234.307C102.458 234.396 102.938 234.694 103.255 235.136C103.572 235.578 103.7 236.128 103.612 236.665C103.524 237.202 103.226 237.682 102.783 237.999L91.9478 245.769Z" fill="#3BD0B4"/>
<path d="M72.0507 194.598L71.6169 190.209L84.7839 188.908C85.3659 188.85 85.947 189.026 86.3992 189.397C86.8514 189.768 87.1378 190.303 87.1953 190.885C87.2528 191.467 87.0768 192.048 86.7059 192.5C86.335 192.953 85.7997 193.239 85.2177 193.297L72.0507 194.598Z" fill="#3BD0B4"/>
<path d="M80.1132 139.811L81.932 135.793L93.9857 141.25C94.5185 141.491 94.9336 141.934 95.1398 142.481C95.346 143.029 95.3264 143.635 95.0852 144.168C94.844 144.701 94.401 145.116 93.8537 145.322C93.3064 145.529 92.6996 145.509 92.1668 145.268L80.1132 139.811Z" fill="#3BD0B4"/>
<path d="M115.039 96.6854L118.373 94.2946L126.144 105.13C126.461 105.572 126.589 106.122 126.501 106.659C126.412 107.196 126.114 107.676 125.672 107.993C125.23 108.31 124.68 108.438 124.143 108.35C123.606 108.261 123.127 107.963 122.81 107.521L115.039 96.6854Z" fill="#3BD0B4"/>
<path d="M165.965 75.9857L170.354 75.5519L171.656 88.719C171.713 89.301 171.537 89.882 171.166 90.3342C170.796 90.7865 170.26 91.0728 169.678 91.1304C169.096 91.1879 168.515 91.0118 168.063 90.641C167.611 90.2701 167.324 89.7348 167.267 89.1527L165.965 75.9857Z" fill="#3BD0B4"/>
<path d="M220.751 84.0475L224.769 85.8663L219.313 97.92C219.072 98.4528 218.629 98.868 218.081 99.0742C217.534 99.2804 216.927 99.2607 216.394 99.0195C215.862 98.7783 215.447 98.3353 215.24 97.788C215.034 97.2407 215.054 96.634 215.295 96.1011L220.751 84.0475Z" fill="#3BD0B4"/>
<path d="M277.223 111.645L273.308 122.025L266.135 112.023L277.223 111.645Z" fill="#FF0000"/>
<path d="M281.03 106.502C281.443 106.206 281.805 106.01 282.116 105.914C282.43 105.819 282.715 105.806 282.971 105.874C283.228 105.945 283.448 106.107 283.63 106.361C283.764 106.548 283.844 106.74 283.869 106.936C283.896 107.13 283.87 107.325 283.794 107.519C283.718 107.713 283.597 107.909 283.43 108.108C283.264 108.306 283.009 108.529 282.663 108.778C282.253 109.071 281.892 109.266 281.579 109.363C281.268 109.459 280.983 109.472 280.725 109.403C280.469 109.334 280.249 109.172 280.066 108.917C279.824 108.58 279.755 108.229 279.859 107.864C279.984 107.426 280.375 106.972 281.03 106.502ZM281.346 106.942C280.773 107.353 280.439 107.693 280.344 107.963C280.252 108.234 280.277 108.467 280.418 108.664C280.559 108.861 280.773 108.958 281.059 108.954C281.346 108.953 281.775 108.747 282.347 108.337C282.921 107.925 283.255 107.584 283.347 107.314C283.44 107.045 283.415 106.81 283.272 106.61C283.13 106.414 282.934 106.316 282.684 106.318C282.365 106.323 281.919 106.531 281.346 106.942Z" fill="white"/>
<path d="M304.621 167.333L304.742 167.85C304.451 167.94 304.246 168.063 304.128 168.22C304.013 168.379 303.965 168.562 303.985 168.77C304.01 169.017 304.116 169.216 304.304 169.369C304.492 169.523 304.712 169.587 304.965 169.562C305.206 169.539 305.396 169.44 305.536 169.267C305.678 169.094 305.737 168.886 305.713 168.644C305.703 168.544 305.671 168.423 305.618 168.279L306.084 168.292C306.084 168.327 306.085 168.356 306.087 168.377C306.109 168.6 306.187 168.796 306.321 168.963C306.456 169.13 306.644 169.202 306.887 169.178C307.08 169.159 307.233 169.078 307.346 168.935C307.46 168.793 307.506 168.618 307.486 168.412C307.466 168.208 307.385 168.045 307.243 167.921C307.101 167.798 306.9 167.729 306.64 167.716L306.681 167.182C307.039 167.211 307.326 167.33 307.541 167.538C307.758 167.747 307.883 168.02 307.916 168.358C307.939 168.591 307.91 168.811 307.828 169.017C307.748 169.223 307.627 169.387 307.464 169.507C307.302 169.629 307.123 169.699 306.929 169.719C306.744 169.737 306.571 169.704 306.41 169.62C306.248 169.536 306.113 169.401 306.005 169.215C305.972 169.474 305.869 169.682 305.699 169.84C305.53 169.998 305.307 170.091 305.031 170.118C304.658 170.155 304.328 170.05 304.041 169.804C303.755 169.557 303.592 169.226 303.551 168.81C303.514 168.435 303.595 168.112 303.794 167.841C303.993 167.572 304.268 167.403 304.621 167.333ZM305.928 170.556C306.434 170.506 306.845 170.518 307.162 170.59C307.482 170.665 307.735 170.796 307.922 170.983C308.11 171.173 308.219 171.423 308.25 171.734C308.272 171.964 308.246 172.169 308.17 172.352C308.095 172.534 307.976 172.69 307.812 172.82C307.651 172.949 307.447 173.059 307.203 173.148C306.961 173.236 306.628 173.302 306.204 173.344C305.702 173.393 305.292 173.382 304.973 173.309C304.656 173.237 304.402 173.106 304.213 172.916C304.025 172.729 303.916 172.478 303.885 172.166C303.845 171.753 303.96 171.415 304.233 171.151C304.56 170.834 305.126 170.636 305.928 170.556ZM305.982 171.096C305.28 171.165 304.821 171.293 304.604 171.479C304.389 171.667 304.293 171.882 304.317 172.123C304.341 172.364 304.477 172.555 304.727 172.695C304.976 172.837 305.451 172.873 306.151 172.804C306.854 172.735 307.313 172.606 307.528 172.418C307.744 172.232 307.839 172.016 307.815 171.771C307.791 171.53 307.67 171.348 307.452 171.224C307.173 171.069 306.683 171.026 305.982 171.096Z" fill="white"/>
<path d="M294.709 235.432L294.888 234.937C295.096 234.98 295.26 234.981 295.381 234.942C295.577 234.874 295.718 234.745 295.804 234.554C295.873 234.401 295.891 234.248 295.858 234.093C295.816 233.892 295.709 233.7 295.537 233.517C295.365 233.334 295.084 233.152 294.694 232.971C294.818 233.167 294.885 233.367 294.894 233.573C294.904 233.779 294.867 233.974 294.784 234.157C294.639 234.477 294.398 234.696 294.06 234.813C293.722 234.933 293.367 234.908 292.993 234.739C292.748 234.628 292.543 234.471 292.38 234.268C292.218 234.068 292.122 233.85 292.094 233.614C292.066 233.379 292.105 233.143 292.211 232.908C292.392 232.508 292.687 232.248 293.095 232.128C293.504 232.009 294.047 232.103 294.723 232.409C295.48 232.751 295.966 233.14 296.183 233.575C296.372 233.954 296.373 234.35 296.186 234.763C296.046 235.07 295.846 235.283 295.585 235.401C295.323 235.52 295.031 235.53 294.709 235.432ZM293.91 232.707C293.745 232.632 293.571 232.595 293.388 232.596C293.205 232.598 293.044 232.645 292.907 232.735C292.771 232.826 292.672 232.941 292.609 233.079C292.518 233.282 292.521 233.494 292.618 233.714C292.716 233.934 292.905 234.107 293.186 234.234C293.457 234.357 293.702 234.381 293.922 234.307C294.144 234.234 294.304 234.088 294.403 233.869C294.502 233.652 294.507 233.432 294.419 233.21C294.332 232.989 294.163 232.821 293.91 232.707ZM293.435 235.518C293.898 235.727 294.248 235.943 294.487 236.164C294.726 236.388 294.88 236.628 294.949 236.885C295.016 237.142 294.986 237.414 294.857 237.698C294.762 237.908 294.636 238.073 294.479 238.193C294.323 238.313 294.142 238.389 293.935 238.42C293.73 238.451 293.5 238.444 293.243 238.399C292.989 238.355 292.668 238.245 292.28 238.069C291.821 237.861 291.471 237.646 291.231 237.424C290.993 237.202 290.839 236.962 290.769 236.704C290.701 236.447 290.732 236.176 290.861 235.89C291.032 235.512 291.301 235.277 291.669 235.185C292.112 235.074 292.7 235.185 293.435 235.518ZM293.212 236.011C292.569 235.721 292.108 235.602 291.826 235.654C291.546 235.71 291.356 235.848 291.256 236.069C291.156 236.289 291.179 236.523 291.325 236.769C291.47 237.017 291.863 237.285 292.504 237.575C293.148 237.867 293.61 237.985 293.89 237.93C294.17 237.876 294.36 237.737 294.461 237.513C294.561 237.292 294.548 237.074 294.42 236.858C294.257 236.584 293.854 236.302 293.212 236.011Z" fill="white"/>
<path d="M252.123 282.577L251.738 282.911C251.564 282.742 251.397 282.649 251.236 282.633C251.075 282.616 250.917 282.663 250.763 282.773C250.632 282.868 250.538 282.98 250.483 283.111C250.426 283.243 250.402 283.382 250.41 283.528C250.42 283.675 250.464 283.849 250.544 284.051C250.625 284.254 250.728 284.444 250.856 284.621C250.869 284.64 250.891 284.668 250.92 284.705C250.907 284.507 250.945 284.312 251.033 284.119C251.12 283.929 251.25 283.772 251.423 283.648C251.712 283.441 252.032 283.371 252.382 283.437C252.732 283.503 253.03 283.707 253.276 284.05C253.53 284.404 253.63 284.763 253.577 285.128C253.523 285.495 253.338 285.79 253.024 286.016C252.797 286.178 252.546 286.266 252.271 286.278C251.994 286.291 251.726 286.219 251.467 286.061C251.207 285.907 250.923 285.615 250.616 285.186C250.296 284.74 250.089 284.35 249.996 284.016C249.904 283.683 249.904 283.378 249.997 283.103C250.089 282.828 250.263 282.598 250.52 282.414C250.793 282.218 251.07 282.134 251.352 282.16C251.634 282.189 251.891 282.328 252.123 282.577ZM251.473 285.376C251.649 285.622 251.855 285.77 252.09 285.82C252.324 285.871 252.533 285.83 252.717 285.698C252.907 285.562 253.018 285.365 253.047 285.108C253.077 284.851 253.003 284.599 252.826 284.352C252.666 284.129 252.47 283.996 252.236 283.952C252.002 283.911 251.787 283.961 251.59 284.102C251.392 284.244 251.279 284.43 251.251 284.659C251.222 284.891 251.296 285.13 251.473 285.376ZM250.128 285.392C250.424 285.804 250.62 286.166 250.716 286.477C250.811 286.791 250.824 287.076 250.756 287.332C250.685 287.589 250.523 287.809 250.269 287.991C250.082 288.125 249.89 288.205 249.694 288.23C249.5 288.257 249.305 288.232 249.111 288.155C248.917 288.08 248.721 287.958 248.522 287.791C248.324 287.626 248.1 287.37 247.852 287.024C247.559 286.614 247.363 286.253 247.267 285.941C247.171 285.629 247.158 285.345 247.227 285.086C247.296 284.83 247.458 284.61 247.713 284.427C248.05 284.186 248.401 284.117 248.766 284.22C249.204 284.346 249.658 284.736 250.128 285.392ZM249.688 285.708C249.277 285.135 248.937 284.801 248.667 284.706C248.396 284.614 248.163 284.638 247.966 284.779C247.769 284.92 247.672 285.134 247.676 285.42C247.677 285.707 247.883 286.137 248.293 286.708C248.705 287.283 249.046 287.616 249.316 287.708C249.585 287.801 249.82 287.776 250.02 287.633C250.216 287.492 250.314 287.296 250.312 287.045C250.307 286.726 250.099 286.28 249.688 285.708Z" fill="white"/>
<path d="M192.767 303.412L193.292 303.361L193.623 306.705C193.737 306.572 193.891 306.435 194.085 306.294C194.278 306.153 194.452 306.045 194.61 305.968L194.66 306.476C194.38 306.643 194.14 306.835 193.94 307.053C193.74 307.271 193.603 307.477 193.53 307.671L193.192 307.704L192.767 303.412ZM188.712 304.323L188.662 303.818L191.487 303.539C191.504 303.665 191.495 303.788 191.462 303.909C191.409 304.109 191.313 304.31 191.174 304.512C191.034 304.714 190.825 304.953 190.55 305.227C190.123 305.654 189.839 305.986 189.698 306.224C189.557 306.464 189.496 306.683 189.516 306.881C189.536 307.089 189.628 307.256 189.792 307.384C189.954 307.513 190.154 307.566 190.393 307.542C190.646 307.517 190.841 307.421 190.977 307.255C191.114 307.088 191.17 306.871 191.146 306.602L191.69 306.604C191.693 307.01 191.584 307.33 191.364 307.564C191.144 307.799 190.831 307.937 190.425 307.978C190.015 308.018 189.679 307.936 189.417 307.733C189.156 307.529 189.008 307.259 188.975 306.923C188.958 306.752 188.977 306.58 189.03 306.408C189.084 306.236 189.183 306.05 189.328 305.851C189.472 305.653 189.716 305.375 190.062 305.019C190.35 304.724 190.535 304.524 190.615 304.42C190.695 304.318 190.76 304.216 190.808 304.115L188.712 304.323ZM188.305 305.982C188.355 306.487 188.344 306.899 188.271 307.216C188.197 307.535 188.066 307.789 187.878 307.976C187.689 308.164 187.438 308.273 187.127 308.303C186.898 308.326 186.692 308.299 186.51 308.223C186.328 308.149 186.172 308.03 186.042 307.866C185.912 307.704 185.803 307.501 185.714 307.257C185.625 307.014 185.56 306.681 185.518 306.257C185.468 305.756 185.48 305.346 185.552 305.026C185.625 304.709 185.756 304.456 185.945 304.266C186.133 304.079 186.383 303.97 186.696 303.939C187.108 303.898 187.446 304.014 187.711 304.286C188.028 304.614 188.226 305.179 188.305 305.982ZM187.766 306.035C187.696 305.334 187.569 304.874 187.382 304.657C187.194 304.442 186.98 304.347 186.739 304.37C186.498 304.394 186.307 304.531 186.167 304.78C186.025 305.03 185.988 305.504 186.057 306.204C186.127 306.908 186.256 307.367 186.444 307.582C186.63 307.797 186.845 307.893 187.09 307.868C187.331 307.845 187.514 307.724 187.637 307.505C187.792 307.227 187.835 306.737 187.766 306.035Z" fill="white"/>
<path d="M131.774 293.788L132.255 294.005L130.869 297.067C131.034 297.009 131.237 296.967 131.475 296.942C131.712 296.917 131.917 296.91 132.092 296.922L131.882 297.387C131.556 297.392 131.252 297.438 130.969 297.527C130.687 297.616 130.466 297.726 130.305 297.857L129.996 297.717L131.774 293.788ZM130.077 294.255L129.554 294.069C129.627 293.806 129.625 293.582 129.546 293.397C129.464 293.212 129.328 293.076 129.136 292.989C128.904 292.884 128.669 292.883 128.43 292.985C128.191 293.087 128.006 293.282 127.876 293.57C127.752 293.844 127.731 294.095 127.814 294.324C127.896 294.551 128.061 294.721 128.31 294.834C128.465 294.904 128.62 294.932 128.777 294.917C128.933 294.904 129.072 294.858 129.194 294.778L129.619 295.041L128.33 296.879L126.384 295.998L126.592 295.539L128.153 296.246L128.84 295.29C128.531 295.347 128.248 295.317 127.99 295.2C127.648 295.046 127.413 294.797 127.286 294.454C127.158 294.111 127.178 293.754 127.347 293.382C127.507 293.028 127.749 292.768 128.072 292.604C128.466 292.401 128.88 292.397 129.314 292.594C129.67 292.755 129.916 292.986 130.052 293.288C130.186 293.589 130.194 293.911 130.077 294.255ZM126.625 293.782C126.416 294.245 126.2 294.595 125.979 294.834C125.754 295.073 125.514 295.227 125.258 295.295C125 295.363 124.729 295.332 124.444 295.204C124.234 295.108 124.07 294.982 123.95 294.825C123.829 294.67 123.754 294.489 123.723 294.282C123.692 294.077 123.698 293.846 123.744 293.59C123.788 293.336 123.898 293.015 124.074 292.627C124.281 292.168 124.496 291.818 124.719 291.578C124.94 291.34 125.181 291.186 125.439 291.116C125.695 291.048 125.967 291.078 126.253 291.208C126.63 291.379 126.865 291.648 126.958 292.016C127.069 292.459 126.958 293.047 126.625 293.782ZM126.131 293.558C126.422 292.916 126.541 292.454 126.488 292.173C126.433 291.893 126.295 291.703 126.074 291.603C125.854 291.503 125.62 291.526 125.374 291.672C125.126 291.817 124.857 292.21 124.567 292.85C124.276 293.495 124.158 293.957 124.213 294.237C124.267 294.516 124.406 294.707 124.63 294.808C124.85 294.908 125.069 294.894 125.285 294.767C125.558 294.604 125.841 294.201 126.131 293.558Z" fill="white"/>
<path d="M82.4623 255.409L82.7696 255.837L80.0388 257.795C80.2112 257.828 80.4069 257.893 80.626 257.991C80.8439 258.087 81.0252 258.184 81.1701 258.282L80.7558 258.579C80.4712 258.42 80.1845 258.309 79.8956 258.244C79.6066 258.18 79.36 258.164 79.1558 258.198L78.9577 257.922L82.4623 255.409ZM79.3078 255.007C79.3702 255.231 79.3719 255.429 79.3127 255.601C79.2535 255.774 79.1398 255.92 78.9716 256.041C78.7176 256.223 78.4387 256.285 78.1348 256.226C77.8309 256.168 77.5703 255.987 77.3529 255.684C77.1343 255.379 77.0474 255.07 77.092 254.757C77.135 254.445 77.2835 254.198 77.5374 254.016C77.6993 253.9 77.8713 253.841 78.0534 253.84C78.2328 253.839 78.417 253.902 78.6061 254.028C78.5223 253.764 78.5184 253.52 78.5942 253.297C78.669 253.073 78.8143 252.884 79.0301 252.729C79.3285 252.515 79.655 252.441 80.0095 252.506C80.3641 252.572 80.6648 252.776 80.9118 253.121C81.1588 253.465 81.2564 253.816 81.2046 254.173C81.1513 254.531 80.9722 254.819 80.6675 255.037C80.4405 255.2 80.2098 255.279 79.9755 255.274C79.7385 255.269 79.5159 255.179 79.3078 255.007ZM78.6432 255.613C78.8082 255.495 78.905 255.345 78.9335 255.163C78.962 254.982 78.9154 254.806 78.7936 254.636C78.6752 254.471 78.5269 254.373 78.3486 254.342C78.1676 254.311 78.0017 254.35 77.8509 254.458C77.6938 254.571 77.6013 254.72 77.5735 254.906C77.5429 255.091 77.5857 255.264 77.7018 255.426C77.8191 255.59 77.9687 255.688 78.1509 255.721C78.333 255.754 78.4971 255.718 78.6432 255.613ZM80.354 254.595C80.4762 254.508 80.574 254.394 80.6473 254.255C80.7194 254.114 80.7463 253.964 80.7278 253.804C80.7078 253.646 80.6505 253.501 80.556 253.369C80.4092 253.164 80.2221 253.042 79.9948 253.003C79.7674 252.965 79.5522 253.018 79.349 253.164C79.1427 253.312 79.0216 253.503 78.9857 253.738C78.9487 253.971 79.0041 254.191 79.1521 254.397C79.2966 254.599 79.4834 254.718 79.7123 254.756C79.9401 254.792 80.154 254.739 80.354 254.595ZM78.0059 252.829C77.5932 253.125 77.2313 253.321 76.9202 253.416C76.6064 253.512 76.3215 253.525 76.0655 253.456C75.8083 253.386 75.5887 253.224 75.4066 252.97C75.2723 252.782 75.1925 252.591 75.1674 252.395C75.1407 252.2 75.1658 252.006 75.2426 251.811C75.3179 251.618 75.4391 251.421 75.6063 251.222C75.7719 251.024 76.0277 250.801 76.3737 250.553C76.7832 250.259 77.1443 250.064 77.457 249.967C77.7681 249.871 78.053 249.858 78.3117 249.927C78.5678 249.996 78.7874 250.158 78.9706 250.414C79.2119 250.75 79.2808 251.101 79.1773 251.466C79.0519 251.905 78.6614 252.359 78.0059 252.829ZM77.69 252.388C78.263 251.978 78.5969 251.637 78.6918 251.367C78.7839 251.097 78.7594 250.863 78.6183 250.667C78.4771 250.47 78.2635 250.373 77.9775 250.376C77.6902 250.378 77.2609 250.584 76.6896 250.993C76.115 251.405 75.7816 251.747 75.6895 252.017C75.5962 252.286 75.6213 252.52 75.7647 252.72C75.9059 252.917 76.1019 253.014 76.3527 253.012C76.6713 253.007 77.117 252.799 77.69 252.388Z" fill="white"/>
<path d="M58.1913 196.76L58.6957 196.71L58.9749 199.535C58.8489 199.552 58.7254 199.543 58.6044 199.51C58.4049 199.457 58.204 199.361 58.0019 199.222C57.7995 199.081 57.5611 198.873 57.2866 198.598C56.8598 198.171 56.5275 197.887 56.2898 197.746C56.0501 197.605 55.8312 197.544 55.6329 197.564C55.4249 197.584 55.2574 197.676 55.1303 197.84C55.0011 198.002 54.9483 198.202 54.9719 198.441C54.9969 198.694 55.0927 198.889 55.2592 199.025C55.4258 199.162 55.6433 199.218 55.9118 199.193L55.9097 199.738C55.5037 199.741 55.1838 199.632 54.9501 199.412C54.7144 199.192 54.5765 198.879 54.5363 198.473C54.4958 198.063 54.5774 197.727 54.7812 197.465C54.985 197.204 55.255 197.056 55.5913 197.023C55.7623 197.006 55.9339 197.024 56.106 197.078C56.2781 197.132 56.4636 197.231 56.6625 197.376C56.8611 197.52 57.1384 197.764 57.4945 198.11C57.7899 198.398 57.9897 198.583 58.0938 198.663C58.1959 198.743 58.2975 198.807 58.3985 198.856L58.1913 196.76ZM58.4444 194.168L58.4963 194.693L55.1522 195.023C55.2852 195.138 55.4221 195.292 55.563 195.486C55.7037 195.678 55.8122 195.853 55.8886 196.01L55.3813 196.06C55.2143 195.781 55.0218 195.541 54.8038 195.34C54.5858 195.14 54.3799 195.003 54.1862 194.93L54.1528 194.592L58.4444 194.168ZM56.2034 193.029C55.698 193.079 55.2867 193.068 54.9694 192.995C54.65 192.921 54.3967 192.79 54.2093 192.602C54.0218 192.413 53.9127 192.163 53.882 191.852C53.8593 191.622 53.8861 191.416 53.9623 191.234C54.0365 191.052 54.1555 190.896 54.3193 190.766C54.4812 190.636 54.6843 190.527 54.9287 190.438C55.1711 190.349 55.5042 190.284 55.9279 190.242C56.4294 190.193 56.8397 190.204 57.1589 190.277C57.4762 190.349 57.7296 190.48 57.9191 190.669C58.1064 190.857 58.2155 191.107 58.2464 191.42C58.2872 191.832 58.1714 192.17 57.8992 192.435C57.5714 192.752 57.0061 192.95 56.2034 193.029ZM56.1501 192.49C56.8517 192.421 57.3111 192.293 57.5282 192.106C57.7432 191.918 57.8388 191.704 57.8149 191.463C57.7911 191.222 57.6545 191.031 57.4051 190.891C57.1556 190.749 56.6809 190.712 55.9812 190.782C55.2776 190.851 54.8183 190.98 54.6034 191.168C54.3882 191.354 54.2927 191.57 54.3169 191.814C54.3408 192.055 54.4618 192.238 54.6801 192.361C54.9584 192.517 55.4484 192.559 56.1501 192.49Z" fill="white"/>
<path d="M66.2601 132.575L66.7218 132.784L65.5511 135.37C65.4338 135.321 65.331 135.252 65.2428 135.163C65.0965 135.017 64.9705 134.834 64.8649 134.612C64.7602 134.389 64.6577 134.09 64.5576 133.714C64.4013 133.131 64.2556 132.719 64.1204 132.478C63.9835 132.236 63.8242 132.074 63.6428 131.991C63.4524 131.905 63.2612 131.901 63.0693 131.979C62.8764 132.055 62.7305 132.202 62.6314 132.421C62.5267 132.652 62.5123 132.869 62.5883 133.071C62.6642 133.272 62.8246 133.429 63.0693 133.542L62.7951 134.013C62.4421 133.813 62.2194 133.559 62.1271 133.251C62.0331 132.942 62.0702 132.602 62.2385 132.23C62.4085 131.855 62.6471 131.605 62.9543 131.48C63.2616 131.356 63.5691 131.363 63.8769 131.502C64.0335 131.573 64.1729 131.675 64.2952 131.808C64.4174 131.94 64.5283 132.119 64.6279 132.344C64.7283 132.567 64.8463 132.918 64.9819 133.395C65.0934 133.793 65.1742 134.052 65.2243 134.174C65.2727 134.294 65.3284 134.401 65.3914 134.494L66.2601 132.575ZM67.6533 130.726L66.7165 130.302L65.9481 131.999L65.5077 131.8L63.7805 128.867L63.9581 128.474L66.4936 129.622L66.7328 129.094L67.1732 129.293L66.934 129.822L67.8708 130.246L67.6533 130.726ZM66.2761 130.103L64.512 129.304L65.7216 131.328L66.2761 130.103ZM66.4039 128.35C65.9413 128.141 65.5907 127.925 65.3523 127.703C65.1129 127.479 64.9589 127.239 64.8905 126.983C64.8229 126.725 64.8535 126.454 64.9823 126.169C65.0774 125.959 65.2035 125.794 65.3606 125.675C65.5159 125.554 65.697 125.479 65.9038 125.448C66.1089 125.416 66.3395 125.423 66.5956 125.468C66.8499 125.513 67.171 125.623 67.5589 125.798C68.018 126.006 68.3676 126.221 68.6078 126.444C68.8463 126.665 69.0002 126.905 69.0696 127.164C69.1381 127.42 69.1075 127.691 68.9778 127.978C68.807 128.355 68.5377 128.59 68.1698 128.683C67.7274 128.794 67.1387 128.683 66.4039 128.35ZM66.6274 127.856C67.2697 128.147 67.7315 128.266 68.0127 128.213C68.2929 128.158 68.4829 128.02 68.5828 127.799C68.6827 127.578 68.6597 127.345 68.5138 127.099C68.3688 126.851 67.9759 126.582 67.3354 126.292C66.6913 126.001 66.2291 125.882 65.9489 125.938C65.6695 125.991 65.4791 126.13 65.3776 126.355C65.2777 126.575 65.2914 126.794 65.4186 127.01C65.5821 127.283 65.9851 127.565 66.6274 127.856Z" fill="white"/>
<path d="M106.278 82.0077L106.573 82.4196L104.266 84.0739C104.189 83.973 104.135 83.8619 104.103 83.7405C104.049 83.5412 104.032 83.3193 104.051 83.0748C104.072 82.8291 104.133 82.5186 104.234 82.1433C104.39 81.5602 104.47 81.1303 104.474 80.8538C104.476 80.5757 104.419 80.3556 104.303 80.1938C104.181 80.0239 104.018 79.9249 103.812 79.8967C103.608 79.8657 103.407 79.9202 103.212 80.0602C103.006 80.2082 102.885 80.3885 102.85 80.6011C102.815 80.8136 102.875 81.03 103.031 81.2502L102.558 81.5208C102.353 81.1706 102.287 80.8393 102.361 80.5267C102.433 80.2126 102.636 79.9366 102.967 79.6987C103.302 79.4585 103.634 79.3613 103.962 79.407C104.291 79.4527 104.553 79.6128 104.75 79.8874C104.85 80.0271 104.92 80.1849 104.96 80.3608C105 80.5367 105.006 80.747 104.98 80.9918C104.955 81.2355 104.882 81.5979 104.761 82.079C104.659 82.4792 104.599 82.7444 104.582 82.8745C104.563 83.0031 104.558 83.1233 104.566 83.2352L106.278 82.0077ZM104.889 79.0347L104.593 78.6228L106.853 77.0026L107.092 77.3359C107.039 77.7318 107.044 78.2043 107.106 78.7534C107.17 79.3013 107.291 79.8251 107.469 80.3248C107.592 80.6783 107.767 81.0374 107.992 81.402L107.552 81.7179C107.36 81.4399 107.176 81.0695 107 80.6066C106.824 80.1438 106.703 79.6633 106.637 79.1653C106.571 78.6646 106.558 78.2124 106.598 77.8089L104.889 79.0347ZM108.515 78.4207C108.219 78.0081 108.023 77.6462 107.927 77.3351C107.832 77.0212 107.819 76.7363 107.888 76.4803C107.958 76.2232 108.12 76.0035 108.374 75.8214C108.562 75.6871 108.753 75.6074 108.949 75.5823C109.144 75.5556 109.338 75.5807 109.533 75.6575C109.726 75.7327 109.923 75.854 110.122 76.0211C110.32 76.1867 110.543 76.4426 110.791 76.7886C111.085 77.1981 111.28 77.5592 111.377 77.8718C111.472 78.1829 111.486 78.4679 111.416 78.7266C111.348 78.9826 111.186 79.2022 110.93 79.3855C110.594 79.6268 110.243 79.6957 109.878 79.5921C109.439 79.4667 108.985 79.0762 108.515 78.4207ZM108.955 78.1049C109.366 78.6779 109.707 79.0118 109.977 79.1066C110.247 79.1988 110.481 79.1743 110.677 79.0331C110.874 78.892 110.971 78.6784 110.968 78.3923C110.966 78.1051 110.76 77.6758 110.351 77.1044C109.939 76.5298 109.597 76.1965 109.327 76.1044C109.058 76.0111 108.824 76.0362 108.624 76.1796C108.427 76.3207 108.33 76.5167 108.332 76.7676C108.337 77.0861 108.545 77.5319 108.955 78.1049Z" fill="white"/>
<path d="M162.608 57.5653L163.126 57.4434C163.216 57.7349 163.339 57.9395 163.496 58.0575C163.654 58.1733 163.838 58.2209 164.046 58.2004C164.292 58.176 164.492 58.0699 164.644 57.8822C164.798 57.6942 164.863 57.4739 164.838 57.2212C164.814 56.9802 164.716 56.7897 164.543 56.6498C164.37 56.5079 164.162 56.449 163.919 56.473C163.82 56.4828 163.698 56.5145 163.555 56.5679L163.567 56.1015C163.603 56.1019 163.631 56.1011 163.652 56.099C163.876 56.0769 164.071 55.9987 164.239 55.8644C164.406 55.7301 164.478 55.5415 164.454 55.2985C164.435 55.1061 164.354 54.9532 164.211 54.8397C164.068 54.7262 163.894 54.6797 163.688 54.7001C163.484 54.7202 163.32 54.8012 163.197 54.9429C163.073 55.0846 163.005 55.2857 162.991 55.5461L162.457 55.5047C162.487 55.1465 162.606 54.86 162.814 54.6451C163.022 54.4283 163.295 54.3031 163.634 54.2697C163.867 54.2467 164.087 54.276 164.293 54.3576C164.499 54.4374 164.662 54.5586 164.782 54.7214C164.904 54.884 164.975 55.0625 164.994 55.2569C165.012 55.4415 164.979 55.6146 164.895 55.776C164.811 55.9374 164.676 56.0724 164.491 56.181C164.749 56.2143 164.958 56.3164 165.116 56.4872C165.274 56.6561 165.366 56.8785 165.394 57.1545C165.431 57.5277 165.326 57.858 165.079 58.1453C164.833 58.4307 164.502 58.594 164.086 58.6351C163.711 58.6722 163.388 58.5912 163.117 58.3923C162.848 58.1932 162.678 57.9175 162.608 57.5653ZM165.832 56.2575C165.782 55.7521 165.793 55.3408 165.866 55.0235C165.94 54.7041 166.071 54.4507 166.259 54.2634C166.448 54.0759 166.699 53.9668 167.01 53.936C167.239 53.9134 167.445 53.9401 167.627 54.0163C167.809 54.0906 167.965 54.2096 168.095 54.3734C168.225 54.5352 168.334 54.7384 168.423 54.9827C168.512 55.2252 168.577 55.5583 168.619 55.982C168.669 56.4835 168.657 56.8938 168.585 57.213C168.512 57.5303 168.381 57.7837 168.192 57.9731C168.004 58.1605 167.754 58.2696 167.441 58.3005C167.029 58.3412 166.691 58.2255 166.426 57.9533C166.109 57.6255 165.911 57.0602 165.832 56.2575ZM166.371 56.2042C166.441 56.9058 166.568 57.3652 166.755 57.5823C166.943 57.7973 167.157 57.8928 167.398 57.869C167.639 57.8452 167.83 57.7086 167.97 57.4592C168.112 57.2097 168.149 56.735 168.08 56.0353C168.01 55.3317 167.881 54.8724 167.693 54.6574C167.507 54.4423 167.292 54.3468 167.047 54.371C166.806 54.3948 166.623 54.5159 166.5 54.7342C166.345 55.0125 166.302 55.5025 166.371 56.2042ZM169.156 55.929C169.106 55.4236 169.117 55.0123 169.19 54.695C169.264 54.3756 169.395 54.1222 169.583 53.9349C169.772 53.7474 170.022 53.6383 170.333 53.6075C170.563 53.5849 170.768 53.6116 170.951 53.6878C171.133 53.7621 171.289 53.8811 171.419 54.0449C171.549 54.2067 171.658 54.4099 171.747 54.6543C171.836 54.8967 171.901 55.2298 171.943 55.6535C171.992 56.155 171.981 56.5653 171.908 56.8845C171.836 57.2018 171.705 57.4552 171.515 57.6446C171.328 57.832 171.078 57.9411 170.765 57.972C170.353 58.0127 170.014 57.897 169.75 57.6248C169.433 57.297 169.235 56.7317 169.156 55.929ZM169.695 55.8757C169.764 56.5773 169.892 57.0367 170.078 57.2538C170.267 57.4688 170.481 57.5643 170.722 57.5405C170.963 57.5167 171.154 57.3801 171.294 57.1307C171.436 56.8812 171.473 56.4065 171.403 55.7068C171.334 55.0032 171.205 54.5439 171.017 54.329C170.831 54.1138 170.615 54.0183 170.37 54.0425C170.129 54.0663 169.947 54.1874 169.823 54.4057C169.668 54.684 169.626 55.174 169.695 55.8757Z" fill="white"/>
<path d="M227.347 65.2716L227.856 65.425C227.788 65.7222 227.793 65.9611 227.87 66.1417C227.949 66.3213 228.084 66.4542 228.274 66.5404C228.5 66.6427 228.726 66.6506 228.952 66.5641C229.179 66.4784 229.345 66.3199 229.45 66.0886C229.55 65.868 229.56 65.6539 229.48 65.4463C229.402 65.2369 229.251 65.0819 229.028 64.9812C228.938 64.9401 228.817 64.9068 228.665 64.8811L228.91 64.4836C228.94 64.5017 228.965 64.5151 228.985 64.524C229.189 64.6166 229.398 64.6466 229.61 64.6139C229.822 64.5813 229.978 64.4538 230.079 64.2313C230.158 64.0552 230.165 63.8823 230.098 63.7127C230.031 63.5431 229.903 63.4156 229.715 63.3302C229.528 63.2456 229.346 63.2338 229.168 63.2949C228.99 63.356 228.83 63.4959 228.688 63.7146L228.247 63.4117C228.451 63.1163 228.697 62.9276 228.985 62.8457C229.274 62.762 229.573 62.7902 229.883 62.9303C230.096 63.027 230.272 63.1623 230.41 63.3361C230.549 63.5082 230.629 63.6948 230.652 63.8959C230.676 64.0977 230.648 64.2876 230.568 64.4655C230.491 64.6346 230.376 64.7679 230.222 64.8656C230.069 64.9634 229.885 65.0129 229.67 65.0142C229.877 65.1722 230.006 65.3648 230.058 65.5918C230.11 65.8171 230.079 66.056 229.965 66.3087C229.81 66.6503 229.554 66.884 229.197 67.0096C228.841 67.1335 228.472 67.1093 228.092 66.9369C227.748 66.7814 227.509 66.5499 227.374 66.2421C227.241 65.9352 227.232 65.6117 227.347 65.2716ZM230.39 66.6489L230.899 66.8024C230.831 67.0996 230.835 67.3385 230.912 67.5191C230.992 67.6987 231.127 67.8316 231.317 67.9178C231.543 68.0201 231.769 68.028 231.994 67.9415C232.222 67.8558 232.388 67.6973 232.493 67.4659C232.593 67.2453 232.603 67.0312 232.523 66.8236C232.444 66.6143 232.293 66.4592 232.071 66.3585C231.98 66.3175 231.859 66.2841 231.708 66.2585L231.952 65.861C231.983 65.879 232.008 65.8925 232.027 65.9013C232.232 65.994 232.44 66.0239 232.652 65.9913C232.864 65.9586 233.021 65.8311 233.121 65.6087C233.201 65.4325 233.207 65.2596 233.141 65.09C233.074 64.9204 232.946 64.7929 232.757 64.7075C232.571 64.623 232.388 64.6112 232.211 64.6722C232.033 64.7333 231.873 64.8732 231.731 65.092L231.289 64.7891C231.494 64.4936 231.74 64.3049 232.028 64.223C232.317 64.1393 232.616 64.1675 232.925 64.3077C233.139 64.4043 233.315 64.5396 233.452 64.7135C233.591 64.8856 233.672 65.0722 233.694 65.2732C233.719 65.4751 233.691 65.6649 233.61 65.8429C233.534 66.0119 233.419 66.1453 233.265 66.243C233.111 66.3407 232.927 66.3902 232.712 66.3915C232.919 66.5496 233.049 66.7421 233.1 66.9692C233.153 67.1944 233.122 67.4334 233.007 67.686C232.853 68.0277 232.597 68.2613 232.24 68.387C231.884 68.5109 231.515 68.4866 231.134 68.3142C230.791 68.1588 230.552 67.9272 230.416 67.6195C230.283 67.3126 230.274 66.9891 230.39 66.6489ZM233.835 67.1283C234.045 66.6657 234.26 66.3152 234.482 66.0767C234.706 65.8373 234.946 65.6834 235.202 65.6149C235.46 65.5473 235.731 65.5779 236.016 65.7068C236.226 65.8018 236.391 65.9279 236.511 66.085C236.631 66.2403 236.707 66.4214 236.737 66.6282C236.769 66.8333 236.762 67.0639 236.717 67.32C236.673 67.5743 236.563 67.8955 236.387 68.2833C236.179 68.7424 235.964 69.092 235.742 69.3323C235.52 69.5707 235.28 69.7246 235.021 69.7941C234.765 69.8625 234.494 69.8319 234.207 69.7022C233.83 69.5314 233.595 69.2621 233.502 68.8942C233.392 68.4518 233.503 67.8632 233.835 67.1283ZM234.329 67.3518C234.038 67.9942 233.919 68.4559 233.972 68.7371C234.028 69.0173 234.166 69.2073 234.386 69.3072C234.607 69.4071 234.84 69.3841 235.086 69.2382C235.334 69.0932 235.603 68.7004 235.893 68.0598C236.185 67.4157 236.303 66.9536 236.247 66.6734C236.194 66.394 236.055 66.2035 235.831 66.102C235.61 66.0022 235.392 66.0158 235.175 66.1431C234.902 66.3066 234.62 66.7095 234.329 67.3518Z" fill="white"/>
<path d="M271.152 127.412L271.901 128.676L265.579 132.423C265.411 132.523 265.21 132.551 265.022 132.503C264.833 132.455 264.671 132.333 264.571 132.166C264.472 131.998 264.444 131.798 264.492 131.609C264.54 131.42 264.662 131.259 264.829 131.159L271.152 127.412Z" fill="#7C7C7C"/>
<path d="M275.581 135.625L276.217 136.951L269.588 140.131C269.412 140.215 269.21 140.226 269.026 140.162C268.842 140.097 268.691 139.962 268.606 139.786C268.522 139.61 268.511 139.408 268.576 139.224C268.641 139.04 268.776 138.89 268.952 138.805L275.581 135.625Z" fill="#7C7C7C"/>
<path d="M279.278 144.193L279.796 145.569L272.917 148.16C272.734 148.228 272.532 148.222 272.354 148.141C272.177 148.061 272.038 147.913 271.97 147.731C271.901 147.548 271.908 147.346 271.988 147.169C272.069 146.991 272.217 146.853 272.399 146.784L279.278 144.193Z" fill="#7C7C7C"/>
<path d="M282.215 153.05L282.612 154.465L275.533 156.448C275.345 156.5 275.144 156.476 274.974 156.381C274.804 156.285 274.679 156.126 274.627 155.938C274.574 155.75 274.599 155.549 274.694 155.38C274.79 155.21 274.949 155.085 275.137 155.032L282.215 153.05Z" fill="#7C7C7C"/>
<path d="M284.369 162.131L284.64 163.575L277.416 164.933C277.224 164.969 277.026 164.927 276.865 164.817C276.704 164.707 276.593 164.538 276.557 164.346C276.522 164.154 276.563 163.957 276.673 163.796C276.783 163.635 276.953 163.524 277.144 163.488L284.369 162.131Z" fill="#7C7C7C"/>
<path d="M286.266 180.679L286.282 182.148L278.932 182.228C278.737 182.23 278.549 182.155 278.409 182.018C278.27 181.882 278.191 181.696 278.188 181.501C278.187 181.306 278.262 181.118 278.399 180.979C278.535 180.84 278.721 180.76 278.916 180.758L286.266 180.679Z" fill="#7C7C7C"/>
<path d="M285.996 190.006L285.884 191.471L278.554 190.912C278.36 190.897 278.179 190.805 278.052 190.657C277.925 190.509 277.862 190.317 277.877 190.122C277.892 189.928 277.983 189.748 278.131 189.621C278.279 189.494 278.472 189.431 278.666 189.446L285.996 190.006Z" fill="#7C7C7C"/>
<path d="M284.914 199.274L284.675 200.725L277.422 199.53C277.229 199.498 277.057 199.391 276.944 199.233C276.83 199.074 276.784 198.877 276.816 198.684C276.848 198.492 276.955 198.321 277.113 198.207C277.271 198.094 277.468 198.048 277.661 198.079L284.914 199.274Z" fill="#7C7C7C"/>
<path d="M283.028 208.413L282.664 209.837L275.542 208.015C275.353 207.967 275.191 207.846 275.092 207.678C274.993 207.51 274.964 207.31 275.012 207.121C275.061 206.932 275.182 206.77 275.35 206.671C275.518 206.572 275.718 206.543 275.907 206.591L283.028 208.413Z" fill="#7C7C7C"/>
<path d="M280.353 217.352L279.867 218.739L272.93 216.306C272.746 216.241 272.595 216.106 272.511 215.931C272.426 215.755 272.415 215.553 272.479 215.369C272.544 215.185 272.679 215.034 272.855 214.95C273.031 214.866 273.233 214.855 273.417 214.919L280.353 217.352Z" fill="#7C7C7C"/>
<path d="M272.722 234.365L272.002 235.646L265.595 232.043C265.425 231.947 265.3 231.788 265.247 231.6C265.195 231.412 265.219 231.211 265.314 231.041C265.41 230.871 265.569 230.747 265.757 230.694C265.945 230.642 266.145 230.666 266.315 230.762L272.722 234.365Z" fill="#7C7C7C"/>
<path d="M267.825 242.308L266.995 243.521L260.927 239.373C260.766 239.263 260.655 239.093 260.619 238.901C260.583 238.71 260.624 238.512 260.735 238.35C260.845 238.19 261.014 238.079 261.206 238.043C261.397 238.008 261.595 238.049 261.756 238.159L267.825 242.308Z" fill="#7C7C7C"/>
<path d="M262.254 249.793L261.322 250.93L255.637 246.269C255.487 246.146 255.391 245.967 255.372 245.773C255.353 245.579 255.411 245.385 255.535 245.234C255.659 245.084 255.837 244.989 256.031 244.97C256.225 244.951 256.419 245.009 256.569 245.133L262.254 249.793Z" fill="#7C7C7C"/>
<path d="M256.051 256.764L255.024 257.816L249.765 252.677C249.625 252.541 249.546 252.354 249.543 252.159C249.541 251.964 249.617 251.776 249.753 251.637C249.889 251.498 250.075 251.418 250.27 251.416C250.465 251.414 250.653 251.489 250.792 251.626L256.051 256.764Z" fill="#7C7C7C"/>
<path d="M249.265 263.169L248.15 264.127L243.362 258.549C243.235 258.401 243.172 258.209 243.186 258.014C243.201 257.82 243.293 257.639 243.441 257.512C243.589 257.385 243.781 257.323 243.975 257.338C244.17 257.352 244.35 257.444 244.477 257.592L249.265 263.169Z" fill="#7C7C7C"/>
<path d="M234.151 274.086L232.886 274.835L229.139 268.513C229.04 268.345 229.011 268.145 229.06 267.956C229.108 267.767 229.229 267.605 229.397 267.506C229.565 267.406 229.765 267.378 229.954 267.426C230.142 267.475 230.304 267.596 230.404 267.764L234.151 274.086Z" fill="#7C7C7C"/>
<path d="M225.938 278.517L224.612 279.152L221.432 272.523C221.348 272.347 221.337 272.145 221.402 271.961C221.466 271.777 221.602 271.626 221.777 271.541C221.953 271.457 222.155 271.447 222.339 271.511C222.523 271.576 222.674 271.711 222.758 271.887L225.938 278.517Z" fill="#7C7C7C"/>
<path d="M217.37 282.213L215.994 282.731L213.404 275.852C213.335 275.67 213.342 275.467 213.422 275.29C213.503 275.112 213.65 274.973 213.833 274.905C214.015 274.836 214.217 274.843 214.395 274.924C214.572 275.004 214.711 275.152 214.779 275.334L217.37 282.213Z" fill="#7C7C7C"/>
<path d="M208.513 285.15L207.097 285.546L205.115 278.467C205.062 278.28 205.086 278.079 205.182 277.909C205.278 277.739 205.437 277.614 205.625 277.561C205.812 277.509 206.013 277.533 206.183 277.629C206.353 277.724 206.478 277.883 206.53 278.071L208.513 285.15Z" fill="#7C7C7C"/>
<path d="M199.434 287.303L197.989 287.575L196.631 280.35C196.595 280.159 196.637 279.961 196.747 279.8C196.857 279.639 197.026 279.528 197.218 279.492C197.41 279.456 197.608 279.498 197.768 279.608C197.929 279.718 198.04 279.887 198.076 280.079L199.434 287.303Z" fill="#7C7C7C"/>
<path d="M180.885 289.201L179.416 289.217L179.336 281.866C179.334 281.671 179.41 281.483 179.546 281.344C179.682 281.205 179.869 281.125 180.064 281.123C180.259 281.121 180.446 281.197 180.585 281.333C180.725 281.47 180.804 281.656 180.806 281.85L180.885 289.201Z" fill="#7C7C7C"/>
<path d="M171.557 288.931L170.092 288.819L170.652 281.489C170.666 281.295 170.758 281.114 170.906 280.987C171.054 280.86 171.246 280.797 171.441 280.812C171.635 280.827 171.816 280.919 171.942 281.067C172.069 281.214 172.132 281.407 172.117 281.601L171.557 288.931Z" fill="#7C7C7C"/>
<path d="M162.289 287.849L160.839 287.61L162.034 280.357C162.066 280.165 162.172 279.993 162.331 279.879C162.489 279.765 162.687 279.719 162.879 279.751C163.071 279.783 163.243 279.89 163.356 280.048C163.47 280.207 163.516 280.404 163.484 280.596L162.289 287.849Z" fill="#7C7C7C"/>
<path d="M153.15 285.963L151.726 285.599L153.547 278.477C153.596 278.288 153.717 278.126 153.885 278.026C154.053 277.927 154.253 277.898 154.442 277.946C154.631 277.995 154.793 278.116 154.892 278.284C154.991 278.452 155.02 278.652 154.971 278.841L153.15 285.963Z" fill="#7C7C7C"/>
<path d="M144.211 283.288L142.824 282.802L145.257 275.865C145.322 275.681 145.457 275.53 145.633 275.446C145.809 275.361 146.011 275.35 146.195 275.415C146.379 275.479 146.529 275.614 146.613 275.79C146.698 275.966 146.709 276.168 146.644 276.352L144.211 283.288Z" fill="#7C7C7C"/>
<path d="M127.199 275.657L125.918 274.936L129.521 268.529C129.617 268.359 129.776 268.234 129.964 268.182C130.152 268.129 130.353 268.153 130.523 268.249C130.693 268.345 130.817 268.504 130.87 268.692C130.922 268.879 130.898 269.08 130.803 269.25L127.199 275.657Z" fill="#7C7C7C"/>
<path d="M119.256 270.76L118.042 269.93L122.191 263.862C122.301 263.701 122.47 263.59 122.662 263.554C122.854 263.518 123.052 263.56 123.213 263.67C123.374 263.78 123.484 263.949 123.52 264.141C123.556 264.332 123.514 264.53 123.404 264.691L119.256 270.76Z" fill="#7C7C7C"/>
<path d="M111.771 265.189L110.634 264.257L115.295 258.572C115.418 258.421 115.597 258.326 115.791 258.306C115.985 258.287 116.179 258.346 116.33 258.47C116.48 258.593 116.575 258.772 116.595 258.966C116.614 259.16 116.555 259.353 116.431 259.504L111.771 265.189Z" fill="#7C7C7C"/>
<path d="M104.798 258.986L103.747 257.958L108.886 252.699C109.022 252.56 109.208 252.48 109.403 252.478C109.598 252.476 109.786 252.551 109.926 252.687C110.065 252.824 110.145 253.01 110.147 253.205C110.149 253.4 110.073 253.587 109.937 253.727L104.798 258.986Z" fill="#7C7C7C"/>
<path d="M98.3934 252.199L97.4361 251.084L103.014 246.296C103.162 246.169 103.354 246.106 103.549 246.121C103.743 246.136 103.924 246.227 104.051 246.375C104.177 246.523 104.24 246.715 104.225 246.91C104.21 247.104 104.119 247.284 103.971 247.411L98.3934 252.199Z" fill="#7C7C7C"/>
<path d="M87.4764 237.085L86.7273 235.821L93.0498 232.074C93.2176 231.974 93.418 231.946 93.6069 231.994C93.7958 232.042 93.9578 232.164 94.0572 232.331C94.1563 232.499 94.1848 232.699 94.1364 232.888C94.0879 233.077 93.9666 233.239 93.799 233.338L87.4764 237.085Z" fill="#7C7C7C"/>
<path d="M83.0461 228.872L82.4103 227.547L89.0398 224.367C89.2158 224.282 89.418 224.271 89.602 224.336C89.7861 224.401 89.9369 224.536 90.0212 224.712C90.1053 224.888 90.1161 225.09 90.0513 225.274C89.9865 225.457 89.8514 225.608 89.6757 225.692L83.0461 228.872Z" fill="#7C7C7C"/>
<path d="M79.3492 220.304L78.8313 218.929L85.7106 216.338C85.8931 216.269 86.0955 216.276 86.2732 216.356C86.4509 216.437 86.5893 216.585 86.658 216.767C86.7264 216.95 86.7196 217.152 86.6391 217.329C86.5586 217.507 86.411 217.645 86.2286 217.714L79.3492 220.304Z" fill="#7C7C7C"/>
<path d="M76.413 211.447L76.0166 210.032L83.0953 208.049C83.2831 207.997 83.4841 208.021 83.6541 208.117C83.8241 208.212 83.9492 208.371 84.0018 208.559C84.054 208.747 84.0297 208.948 83.934 209.117C83.8384 209.287 83.6793 209.412 83.4916 209.465L76.413 211.447Z" fill="#7C7C7C"/>
<path d="M74.2601 202.367L73.9886 200.923L81.2131 199.565C81.4048 199.529 81.603 199.571 81.764 199.681C81.925 199.791 82.0357 199.96 82.0717 200.152C82.1075 200.344 82.0657 200.541 81.9556 200.702C81.8455 200.863 81.6761 200.974 81.4846 201.01L74.2601 202.367Z" fill="#7C7C7C"/>
<path d="M72.3625 183.819L72.3467 182.35L79.6972 182.27C79.8923 182.268 80.0801 182.343 80.2195 182.48C80.3589 182.616 80.4384 182.802 80.4405 182.997C80.4424 183.192 80.3668 183.38 80.2304 183.519C80.094 183.658 79.908 183.738 79.7131 183.74L72.3625 183.819Z" fill="#7C7C7C"/>
<path d="M72.632 174.492L72.7439 173.026L80.0735 173.586C80.268 173.601 80.4486 173.692 80.5756 173.84C80.7026 173.988 80.7657 174.181 80.7508 174.375C80.7357 174.57 80.6441 174.75 80.4961 174.877C80.3482 175.004 80.1559 175.066 79.9616 175.052L72.632 174.492Z" fill="#7C7C7C"/>
<path d="M73.7142 165.224L73.9532 163.774L81.2064 164.969C81.3988 165.001 81.5708 165.108 81.6845 165.266C81.7981 165.425 81.8442 165.622 81.8125 165.814C81.7805 166.006 81.6736 166.178 81.5151 166.292C81.3567 166.405 81.1597 166.451 80.9675 166.419L73.7142 165.224Z" fill="#7C7C7C"/>
<path d="M75.6006 156.085L75.9647 154.661L83.0865 156.483C83.2755 156.531 83.4375 156.652 83.537 156.82C83.6364 156.988 83.6652 157.188 83.6168 157.377C83.5683 157.566 83.4468 157.728 83.2791 157.827C83.1114 157.926 82.9112 157.955 82.7224 157.907L75.6006 156.085Z" fill="#7C7C7C"/>
<path d="M78.2754 147.145L78.7619 145.758L85.6985 148.191C85.8825 148.256 86.0334 148.391 86.1179 148.566C86.2024 148.742 86.2136 148.944 86.149 149.128C86.0843 149.312 85.9492 149.463 85.7735 149.547C85.5978 149.631 85.3958 149.643 85.212 149.578L78.2754 147.145Z" fill="#7C7C7C"/>
<path d="M85.9058 130.133L86.6263 128.852L93.0334 132.456C93.2034 132.552 93.3284 132.711 93.381 132.899C93.4336 133.086 93.4095 133.287 93.3138 133.457C93.2181 133.627 93.0589 133.752 92.8712 133.804C92.6835 133.857 92.4827 133.832 92.3129 133.737L85.9058 130.133Z" fill="#7C7C7C"/>
<path d="M90.8035 122.191L91.6329 120.978L97.7015 125.126C97.8626 125.236 97.9733 125.406 98.0093 125.597C98.0453 125.789 98.0037 125.987 97.8936 126.148C97.7835 126.309 97.614 126.419 97.4224 126.455C97.2309 126.491 97.033 126.449 96.8721 126.339L90.8035 122.191Z" fill="#7C7C7C"/>
<path d="M96.375 114.705L97.3069 113.568L102.992 118.229C103.142 118.352 103.238 118.531 103.257 118.725C103.276 118.919 103.218 119.113 103.094 119.263C102.97 119.414 102.792 119.509 102.598 119.528C102.404 119.547 102.21 119.489 102.06 119.365L96.375 114.705Z" fill="#7C7C7C"/>
<path d="M102.578 107.734L103.605 106.682L108.864 111.821C109.004 111.957 109.083 112.143 109.086 112.338C109.088 112.534 109.012 112.722 108.876 112.861C108.74 113 108.554 113.08 108.359 113.082C108.164 113.084 107.976 113.009 107.837 112.872L102.578 107.734Z" fill="#7C7C7C"/>
<path d="M109.364 101.329L110.479 100.371L115.267 105.949C115.394 106.097 115.457 106.289 115.443 106.484C115.428 106.678 115.336 106.859 115.188 106.986C115.04 107.113 114.848 107.175 114.654 107.16C114.459 107.146 114.279 107.054 114.152 106.906L109.364 101.329Z" fill="#7C7C7C"/>
<path d="M124.478 90.4108L125.742 89.6616L129.489 95.9842C129.588 96.152 129.617 96.3524 129.569 96.5413C129.521 96.7302 129.399 96.8922 129.231 96.9916C129.064 97.0907 128.863 97.1192 128.675 97.0707C128.486 97.0223 128.324 96.901 128.225 96.7334L124.478 90.4108Z" fill="#7C7C7C"/>
<path d="M132.691 85.9814L134.017 85.3455L137.197 91.9751C137.281 92.151 137.292 92.3532 137.227 92.5373C137.163 92.7213 137.028 92.8721 136.852 92.9565C136.676 93.0405 136.474 93.0514 136.29 92.9866C136.106 92.9218 135.955 92.7867 135.871 92.6109L132.691 85.9814Z" fill="#7C7C7C"/>
<path d="M141.259 82.2845L142.635 81.7665L145.225 88.6459C145.294 88.8284 145.287 89.0307 145.207 89.2084C145.126 89.3861 144.979 89.5245 144.796 89.5933C144.614 89.6617 144.412 89.6549 144.234 89.5744C144.057 89.4939 143.918 89.3462 143.85 89.1638L141.259 82.2845Z" fill="#7C7C7C"/>
<path d="M150.116 79.3483L151.532 78.9519L153.514 86.0306C153.567 86.2184 153.542 86.4194 153.447 86.5894C153.351 86.7594 153.192 86.8845 153.004 86.9371C152.816 86.9893 152.616 86.965 152.446 86.8693C152.276 86.7737 152.151 86.6146 152.099 86.4269L150.116 79.3483Z" fill="#7C7C7C"/>
<path d="M159.195 77.1945L160.64 76.923L161.998 84.1475C162.034 84.3392 161.992 84.5374 161.882 84.6984C161.772 84.8594 161.603 84.9701 161.411 85.0061C161.219 85.0419 161.021 85.0001 160.861 84.89C160.7 84.7799 160.589 84.6105 160.553 84.419L159.195 77.1945Z" fill="#7C7C7C"/>
<path d="M177.744 75.2969L179.213 75.281L179.293 82.6316C179.295 82.8266 179.219 83.0145 179.083 83.1539C178.947 83.2933 178.76 83.3728 178.565 83.3749C178.37 83.3768 178.183 83.3012 178.044 83.1648C177.904 83.0284 177.825 82.8424 177.823 82.6475L177.744 75.2969Z" fill="#7C7C7C"/>
<path d="M187.071 75.5672L188.537 75.6791L187.977 83.0088C187.962 83.2032 187.871 83.3839 187.723 83.5109C187.575 83.6379 187.382 83.7009 187.188 83.686C186.994 83.6709 186.813 83.5793 186.687 83.4314C186.56 83.2834 186.497 83.0912 186.512 82.8969L187.071 75.5672Z" fill="#7C7C7C"/>
<path d="M196.339 76.6494L197.789 76.8883L196.594 84.1416C196.563 84.334 196.456 84.506 196.297 84.6196C196.139 84.7333 195.942 84.7793 195.749 84.7476C195.557 84.7157 195.385 84.6088 195.272 84.4503C195.158 84.2919 195.112 84.0949 195.144 83.9026L196.339 76.6494Z" fill="#7C7C7C"/>
<path d="M205.478 78.5344L206.902 78.8986L205.081 86.0204C205.033 86.2093 204.911 86.3714 204.743 86.4708C204.576 86.5703 204.375 86.599 204.186 86.5507C203.998 86.5021 203.836 86.3807 203.737 86.213C203.637 86.0453 203.609 85.845 203.657 85.6562L205.478 78.5344Z" fill="#7C7C7C"/>
<path d="M214.418 81.2097L215.805 81.6962L213.372 88.6328C213.307 88.8169 213.172 88.9677 212.996 89.0522C212.82 89.1367 212.618 89.1479 212.434 89.0833C212.25 89.0186 212.1 88.8835 212.016 88.7078C211.931 88.5321 211.92 88.3302 211.985 88.1463L214.418 81.2097Z" fill="#7C7C7C"/>
<path d="M231.43 88.8409L232.711 89.5614L229.108 95.9685C229.012 96.1385 228.853 96.2636 228.665 96.3162C228.477 96.3687 228.276 96.3446 228.106 96.249C227.936 96.1532 227.812 95.994 227.759 95.8063C227.707 95.6186 227.731 95.4178 227.826 95.248L231.43 88.8409Z" fill="#7C7C7C"/>
<path d="M239.372 93.7386L240.586 94.5681L236.437 100.637C236.327 100.798 236.158 100.908 235.966 100.944C235.774 100.98 235.576 100.939 235.415 100.829C235.254 100.719 235.144 100.549 235.108 100.358C235.072 100.166 235.114 99.9681 235.224 99.8073L239.372 93.7386Z" fill="#7C7C7C"/>
<path d="M246.858 99.3094L247.995 100.241L243.334 105.926C243.211 106.077 243.032 106.172 242.838 106.192C242.644 106.211 242.45 106.152 242.299 106.028C242.149 105.905 242.053 105.726 242.034 105.532C242.015 105.338 242.074 105.145 242.198 104.994L246.858 99.3094Z" fill="#7C7C7C"/>
<path d="M253.83 105.511L254.881 106.539L249.743 111.798C249.606 111.937 249.42 112.017 249.225 112.019C249.03 112.022 248.842 111.946 248.702 111.81C248.563 111.673 248.484 111.487 248.482 111.292C248.48 111.098 248.555 110.91 248.691 110.77L253.83 105.511Z" fill="#7C7C7C"/>
<path d="M260.234 112.298L261.192 113.414L255.614 118.202C255.466 118.329 255.273 118.392 255.079 118.377C254.885 118.362 254.704 118.271 254.577 118.123C254.45 117.975 254.387 117.782 254.402 117.588C254.417 117.394 254.509 117.213 254.657 117.087L260.234 112.298Z" fill="#7C7C7C"/>
<defs>
<filter id="filter0_d_2162_1151" x="68.2036" y="72.3883" width="226.498" height="226.163" filterUnits="userSpaceOnUse" color-interpolation-filters="sRGB">
<feFlood flood-opacity="0" result="BackgroundImageFix"/>
<feColorMatrix in="SourceAlpha" type="matrix" values="0 0 0 0 0 0 0 0 0 0 0 0 0 0 0 0 0 0 127 0" result="hardAlpha"/>
<feOffset dx="3" dy="3"/>
<feGaussianBlur stdDeviation="3"/>
<feColorMatrix type="matrix" values="0 0 0 0 0 0 0 0 0 0 0 0 0 0 0 0 0 0 0.549 0"/>
<feBlend mode="normal" in2="BackgroundImageFix" result="effect1_dropShadow_2162_1151"/>
<feBlend mode="normal" in="SourceGraphic" in2="effect1_dropShadow_2162_1151" result="shape"/>
</filter>
<filter id="filter1_d_2162_1151" x="63.2036" y="67.3883" width="226.498" height="226.163" filterUnits="userSpaceOnUse" color-interpolation-filters="sRGB">
<feFlood flood-opacity="0" result="BackgroundImageFix"/>
<feColorMatrix in="SourceAlpha" type="matrix" values="0 0 0 0 0 0 0 0 0 0 0 0 0 0 0 0 0 0 127 0" result="hardAlpha"/>
<feOffset dx="-2" dy="-2"/>
<feGaussianBlur stdDeviation="3"/>
<feColorMatrix type="matrix" values="0 0 0 0 1 0 0 0 0 1 0 0 0 0 1 0 0 0 0.212 0"/>
<feBlend mode="normal" in2="BackgroundImageFix" result="effect1_dropShadow_2162_1151"/>
<feBlend mode="normal" in="SourceGraphic" in2="effect1_dropShadow_2162_1151" result="shape"/>
</filter>
</defs>
</svg>
