<svg width="72" height="72" viewBox="0 0 72 72" fill="none" xmlns="http://www.w3.org/2000/svg">
<path d="M55.7163 35.0399L47.4166 35.0491C47.2963 35.0399 47.1754 35.0556 47.0615 35.0953C46.9475 35.1349 46.8431 35.1977 46.7546 35.2797C46.6661 35.3617 46.5955 35.4611 46.5472 35.5716C46.4989 35.6822 46.474 35.8015 46.4741 35.9222C46.4741 36.0428 46.4991 36.1621 46.5475 36.2726C46.5958 36.3832 46.6665 36.4825 46.755 36.5644C46.8436 36.6463 46.9481 36.709 47.0621 36.7486C47.176 36.7882 47.2969 36.8038 47.4172 36.7945L55.7107 36.7914C55.8263 36.7919 55.9408 36.7694 56.0476 36.7254C56.1544 36.6813 56.2515 36.6166 56.3332 36.5348C56.4148 36.4531 56.4795 36.356 56.5235 36.2491C56.5674 36.1423 56.5898 36.0278 56.5893 35.9122C56.5885 35.681 56.4963 35.4595 56.3327 35.296C56.1691 35.1326 55.9475 35.0405 55.7163 35.0399ZM16.1054 35.0546C15.99 35.0546 15.8757 35.0774 15.7691 35.1216C15.6625 35.1658 15.5656 35.2306 15.484 35.3122C15.4024 35.3939 15.3377 35.4908 15.2936 35.5974C15.2495 35.7041 15.2268 35.8183 15.2268 35.9338C15.2269 36.0492 15.2496 36.1635 15.2939 36.2701C15.3381 36.3767 15.4028 36.4735 15.4845 36.5551C15.6494 36.7199 15.8729 36.8124 16.106 36.8123L24.3996 36.8092C24.5151 36.8097 24.6296 36.7872 24.7364 36.7432C24.8432 36.6991 24.9403 36.6344 25.022 36.5526C25.1036 36.4709 25.1683 36.3738 25.2123 36.2669C25.2562 36.1601 25.2786 36.0456 25.2781 35.93C25.2785 35.8145 25.2561 35.7 25.212 35.5932C25.168 35.4863 25.1032 35.3893 25.0215 35.3076C24.9398 35.2259 24.8427 35.1613 24.7358 35.1173C24.629 35.0733 24.5145 35.051 24.3989 35.0515L16.1054 35.0546Z" fill="#DADADA"/>
<path d="M35.8978 0.38776C35.7597 0.386311 35.6233 0.417543 35.4996 0.478902C35.3759 0.540261 35.2685 0.630006 35.1862 0.740809C35.05 0.877021 23.513 16.7195 23.5326 35.9308C23.5521 55.1421 35.076 70.976 35.2123 71.1121C35.2875 71.2142 35.3841 71.2988 35.4953 71.3599C35.6065 71.421 35.7297 71.4572 35.8563 71.466C35.9828 71.4747 36.1098 71.4559 36.2284 71.4107C36.347 71.3656 36.4543 71.2952 36.543 71.2044L36.6358 71.1115C36.7719 70.9753 48.3089 55.1329 48.2894 35.9216C48.2699 16.7103 36.7459 0.876392 36.6097 0.74028C36.5272 0.629538 36.4197 0.539873 36.296 0.478607C36.1723 0.417339 36.0358 0.38621 35.8978 0.38776Z" fill="#FF0000"/>
<path d="M35.9077 26.7413C34.2848 26.7435 32.729 27.3895 31.5818 28.5375C30.4347 29.6855 29.7898 31.2418 29.7889 32.8647L29.7855 40.4465C29.7862 41.1424 30.0631 41.8095 30.5553 42.3014C31.0475 42.7932 31.7148 43.0696 32.4107 43.0698L39.4169 43.0672C40.1127 43.0665 40.7799 42.7896 41.2717 42.2974C41.7636 41.8052 42.04 41.1378 42.0401 40.442L42.0311 32.8602C42.029 31.2373 41.383 29.6815 40.235 28.5343C39.0869 27.3871 37.5307 26.7423 35.9077 26.7413Z" fill="#3BD0B4"/>
<path d="M33.4431 57.3293C33.21 57.3294 32.9865 57.422 32.8218 57.5869C32.657 57.7518 32.5645 57.9754 32.5646 58.2085C32.5647 58.4416 32.6573 58.6651 32.8222 58.8298C32.9871 58.9946 33.2107 59.0871 33.4438 59.087L38.3951 59.0852C38.5107 59.0856 38.6252 59.0632 38.732 59.0191C38.8388 58.9751 38.9359 58.9103 39.0175 58.8286C39.0992 58.7468 39.1639 58.6497 39.2079 58.5429C39.2518 58.436 39.2742 58.3215 39.2737 58.206C39.2741 58.0904 39.2517 57.9759 39.2076 57.8691C39.1636 57.7623 39.0988 57.6652 39.0171 57.5836C38.9353 57.5019 38.8383 57.4372 38.7314 57.3932C38.6245 57.3493 38.51 57.3269 38.3945 57.3274L33.4431 57.3293ZM33.4417 53.6158C33.2086 53.6158 32.9851 53.7085 32.8204 53.8734C32.6556 54.0383 32.5631 54.2619 32.5632 54.4949C32.5633 54.728 32.656 54.9515 32.8208 55.1163C32.9857 55.2811 33.2093 55.3736 33.4424 55.3735L38.3938 55.3716C38.5093 55.3721 38.6238 55.3496 38.7306 55.3056C38.8374 55.2615 38.9345 55.1968 39.0162 55.1151C39.0978 55.0333 39.1625 54.9362 39.2065 54.8294C39.2504 54.7225 39.2728 54.608 39.2723 54.4925C39.2727 54.3769 39.2503 54.2624 39.2062 54.1556C39.1622 54.0488 39.0974 53.9517 39.0157 53.87C38.934 53.7884 38.8369 53.7237 38.73 53.6797C38.6232 53.6358 38.5086 53.6134 38.3931 53.6139L33.4417 53.6158ZM33.428 16.4805C33.1949 16.4806 32.9714 16.5733 32.8066 16.7382C32.6418 16.903 32.5493 17.1266 32.5494 17.3597C32.5495 17.5928 32.6422 17.8163 32.8071 17.9811C32.9719 18.1458 33.1955 18.2383 33.4286 18.2383L38.38 18.2364C38.4955 18.2369 38.61 18.2144 38.7168 18.1704C38.8237 18.1263 38.9207 18.0616 39.0024 17.9798C39.0841 17.8981 39.1487 17.801 39.1927 17.6941C39.2367 17.5873 39.259 17.4728 39.2585 17.3572C39.2589 17.2417 39.2365 17.1272 39.1925 17.0204C39.1484 16.9135 39.0837 16.8165 39.0019 16.7348C38.9202 16.6531 38.8231 16.5885 38.7162 16.5445C38.6094 16.5005 38.4949 16.4782 38.3793 16.4787L33.428 16.4805ZM38.3779 12.7652L33.4266 12.767C33.1935 12.7671 32.97 12.8598 32.8052 13.0246C32.6405 13.1895 32.548 13.4131 32.548 13.6462C32.5481 13.8793 32.6408 14.1028 32.8057 14.2675C32.9706 14.4323 33.1941 14.5248 33.4272 14.5247L38.3786 14.5229C38.4941 14.5233 38.6086 14.5009 38.7155 14.4568C38.8223 14.4128 38.9193 14.348 39.001 14.2663C39.0827 14.1846 39.1474 14.0875 39.1913 13.9806C39.2353 13.8738 39.2577 13.7593 39.2571 13.6437C39.2576 13.5282 39.2351 13.4137 39.1911 13.3068C39.147 13.2 39.0823 13.103 39.0006 13.0213C38.9188 12.9396 38.8217 12.8749 38.7149 12.831C38.608 12.787 38.4935 12.7646 38.3779 12.7652Z" fill="#D3D3D3"/>
<path d="M66.2364 31.5824L59.2178 31.5479C58.9869 31.5456 58.7645 31.6347 58.599 31.7957L55.0972 35.3001C55.0153 35.3811 54.9502 35.4775 54.9056 35.5837C54.861 35.6899 54.8379 35.8039 54.8374 35.9191C54.838 36.0343 54.8612 36.1482 54.9059 36.2544C54.9505 36.3606 55.0157 36.4569 55.0976 36.5379L58.602 40.0397C58.683 40.1216 58.7794 40.1867 58.8856 40.2313C58.9919 40.2758 59.1058 40.299 59.221 40.2994L66.2396 40.2473C66.3548 40.2468 66.4687 40.2235 66.5749 40.1789C66.6811 40.1342 66.7774 40.0691 66.8584 39.9871C67.02 39.824 67.1111 39.6039 67.1119 39.3743L67.0908 32.4362C67.0853 32.2114 66.9935 31.9973 66.8344 31.8383C66.6754 31.6793 66.4612 31.5877 66.2364 31.5824ZM12.5945 31.559L5.58214 31.6049C5.35731 31.6104 5.14321 31.7022 4.98424 31.8612C4.82527 32.0203 4.73364 32.2345 4.72835 32.4593L4.73093 39.416C4.73639 39.6408 4.82818 39.8549 4.98726 40.0139C5.14635 40.1729 5.36052 40.2645 5.58535 40.2698L12.5977 40.3105C12.7135 40.3116 12.8284 40.2898 12.9357 40.2462C13.043 40.2026 13.1406 40.1381 13.2228 40.0565L16.7245 36.5521C16.8064 36.4711 16.8715 36.3747 16.9161 36.2685C16.9607 36.1623 16.9838 36.0483 16.9843 35.9331C16.9787 35.7014 16.8857 35.4804 16.7241 35.3143L13.2197 31.8125C13.1374 31.731 13.0398 31.6666 12.9325 31.6231C12.8252 31.5796 12.7103 31.5578 12.5945 31.559Z" fill="#3BD0B4"/>
</svg>
